<svg width="26" height="26" viewBox="0 0 26 26" fill="none" xmlns="http://www.w3.org/2000/svg">
<mask id="mask0_1802_482" style="mask-type:alpha" maskUnits="userSpaceOnUse" x="0" y="0" width="26" height="26">
<rect x="0.94458" y="0.26709" width="25" height="25" fill="#D9D9D9"/>
</mask>
<g mask="url(#mask0_1802_482)">
<mask id="mask1_1802_482" style="mask-type:alpha" maskUnits="userSpaceOnUse" x="0" y="0" width="27" height="27">
<rect x="0.422119" y="0.26709" width="26.0447" height="26.0447" fill="#D9D9D9"/>
</mask>
<g mask="url(#mask1_1802_482)">
<rect x="4.11572" y="7.36694" width="18.657" height="17.531" fill="white" stroke="black" stroke-width="0.75"/>
<path d="M5.17977 4.8833C5.17977 4.8833 5.43609 4.8833 5.89014 4.8837C6.34419 4.8837 6.99231 4.8837 7.76493 4.8837C8.15673 4.8837 8.57417 4.8837 9.02456 4.8837C9.46762 4.8837 9.93266 4.8837 10.4197 4.8837C10.9067 4.8837 11.4083 4.8837 11.9136 4.8837C12.4263 4.8837 12.9462 4.8837 13.4662 4.8837C13.9825 4.8837 14.4988 4.8837 15.0114 4.8837C15.5204 4.8837 16.0184 4.8837 16.5054 4.8837C16.9924 4.8837 17.4611 4.8837 17.9042 4.8837C18.3509 4.8837 18.772 4.8837 19.1565 4.8837C19.9364 4.8837 20.5845 4.8837 21.0349 4.8833C21.489 4.8837 21.749 4.8833 21.749 4.8833C21.749 4.8833 21.8295 5.01406 21.9613 5.212C21.998 5.26158 22.0346 5.31517 22.0712 5.37155C22.1041 5.42873 22.1518 5.48831 22.1884 5.55029C22.225 5.61227 22.2726 5.67545 22.3129 5.74103C22.3605 5.80581 22.4044 5.87179 22.4483 5.93777C22.4923 6.00295 22.5362 6.06933 22.5765 6.13411C22.6204 6.19929 22.6644 6.26287 22.7047 6.32485C22.7449 6.38643 22.7816 6.44602 22.8218 6.5032C22.8585 6.55958 22.8951 6.61316 22.9207 6.66275C23.0562 6.86069 23.1477 6.99265 23.1477 6.99265C23.1477 6.99265 22.8402 6.99185 22.3092 6.99185C21.7783 6.99185 21.0239 6.99265 20.1085 6.99145C19.6581 6.99265 19.1675 6.99265 18.6438 6.99265C18.1239 6.99265 17.5746 6.99265 16.9997 6.99185C16.4358 6.99265 15.85 6.99265 15.2494 6.99185C14.6563 6.99265 14.0484 6.99265 13.4442 6.99265C12.8364 6.99265 12.2285 6.99185 11.628 6.99145C11.0348 6.99265 10.449 6.99265 9.87773 6.99265C9.30651 6.99265 8.76091 6.99265 8.24095 6.99185C7.71733 6.99265 7.223 6.99185 6.77261 6.99185C5.86085 6.99185 5.10288 6.99185 4.57193 6.99265C4.04098 6.99265 3.74072 6.99265 3.74072 6.99265C3.74072 6.99265 3.8286 6.86069 3.96409 6.66275C3.99704 6.61316 4.03366 6.55958 4.07394 6.5032C4.11055 6.44602 4.15449 6.38643 4.19477 6.32485C4.23871 6.26287 4.28265 6.19929 4.32659 6.13411C4.37054 6.06933 4.41448 6.00295 4.45842 5.93777C4.50602 5.87179 4.54996 5.80581 4.5939 5.74103C4.63784 5.67585 4.68178 5.61227 4.72572 5.55029C4.766 5.48831 4.80628 5.42873 4.84656 5.37155C4.88683 5.31517 4.92345 5.26158 4.95641 5.212C5.09189 5.01446 5.17977 4.8833 5.17977 4.8833Z" fill="black"/>
<path d="M15.9443 3.65205C15.9443 5.32165 14.7138 6.61685 13.2645 6.61685C11.8153 6.61685 10.5847 5.32165 10.5847 3.65205C10.5847 1.98246 11.8153 0.687256 13.2645 0.687256C14.7138 0.687256 15.9443 1.98246 15.9443 3.65205Z" stroke="black" stroke-width="0.75"/>
<path d="M11.9844 16.1374C11.9844 16.8814 12.0044 17.5254 12.0444 18.0694C12.0924 18.6054 12.1724 19.0494 12.2844 19.4014C12.4044 19.7454 12.5684 20.0014 12.7764 20.1694C12.9844 20.3374 13.2564 20.4214 13.5924 20.4214C13.9284 20.4214 14.2004 20.3374 14.4084 20.1694C14.6164 20.0014 14.7764 19.7454 14.8884 19.4014C15.0084 19.0494 15.0884 18.6054 15.1284 18.0694C15.1764 17.5254 15.2004 16.8814 15.2004 16.1374C15.2004 15.3934 15.1764 14.7534 15.1284 14.2174C15.0884 13.6814 15.0084 13.2414 14.8884 12.8974C14.7764 12.5454 14.6164 12.2854 14.4084 12.1174C14.2004 11.9494 13.9284 11.8654 13.5924 11.8654C13.2564 11.8654 12.9844 11.9494 12.7764 12.1174C12.5684 12.2854 12.4044 12.5454 12.2844 12.8974C12.1724 13.2414 12.0924 13.6814 12.0444 14.2174C12.0044 14.7534 11.9844 15.3934 11.9844 16.1374ZM10.7844 16.1374C10.7844 15.6574 10.8204 15.1574 10.8924 14.6374C10.9724 14.1094 11.1164 13.6294 11.3244 13.1974C11.5324 12.7574 11.8164 12.3974 12.1764 12.1174C12.5444 11.8374 13.0164 11.6974 13.5924 11.6974C14.1684 11.6974 14.6364 11.8374 14.9964 12.1174C15.3644 12.3974 15.6524 12.7574 15.8604 13.1974C16.0684 13.6294 16.2084 14.1094 16.2804 14.6374C16.3604 15.1574 16.4004 15.6574 16.4004 16.1374C16.4004 16.6254 16.3604 17.1334 16.2804 17.6614C16.2084 18.1814 16.0684 18.6614 15.8604 19.1014C15.6524 19.5334 15.3644 19.8894 14.9964 20.1694C14.6364 20.4494 14.1684 20.5894 13.5924 20.5894C13.0164 20.5894 12.5444 20.4494 12.1764 20.1694C11.8164 19.8894 11.5324 19.5334 11.3244 19.1014C11.1164 18.6614 10.9724 18.1814 10.8924 17.6614C10.8204 17.1334 10.7844 16.6254 10.7844 16.1374Z" fill="black"/>
</g>
</g>
</svg>
