<svg width="20" height="20" viewBox="0 0 20 20" fill="none" xmlns="http://www.w3.org/2000/svg">
<path d="M9.99984 1.69995C5.4165 1.69995 1.6665 5.44162 1.6665 10.05C1.6665 14.2166 4.7165 17.6749 8.69984 18.2999V12.4666H6.58317V10.05H8.69984V8.20828C8.69984 6.11662 9.9415 4.96662 11.8498 4.96662C12.7582 4.96662 13.7082 5.12495 13.7082 5.12495V7.18328H12.6582C11.6248 7.18328 11.2998 7.82495 11.2998 8.48328V10.05H13.6165L13.2415 12.4666H11.2998V18.2999C13.2635 17.9898 15.0517 16.9879 16.3414 15.475C17.6312 13.9621 18.3376 12.038 18.3332 10.05C18.3332 5.44162 14.5832 1.69995 9.99984 1.69995Z" fill="#232323"/>
</svg>
