<svg width="20" height="20" viewBox="0 0 20 20" fill="none" xmlns="http://www.w3.org/2000/svg">
<path d="M7.53317 17.95C8.33317 18.1916 9.1415 18.3333 9.99984 18.3333C12.21 18.3333 14.3296 17.4553 15.8924 15.8925C17.4552 14.3297 18.3332 12.2101 18.3332 9.99996C18.3332 8.90561 18.1176 7.82198 17.6988 6.81093C17.28 5.79988 16.6662 4.88122 15.8924 4.1074C15.1186 3.33358 14.1999 2.71975 13.1889 2.30096C12.1778 1.88217 11.0942 1.66663 9.99984 1.66663C8.90549 1.66663 7.82185 1.88217 6.81081 2.30096C5.79976 2.71975 4.8811 3.33358 4.10728 4.1074C2.54448 5.67021 1.6665 7.78982 1.6665 9.99996C1.6665 13.5416 3.8915 16.5833 7.03317 17.7833C6.95817 17.1333 6.88317 16.0583 7.03317 15.3166L7.9915 11.2C7.9915 11.2 7.74984 10.7166 7.74984 9.94996C7.74984 8.79996 8.4665 7.94163 9.28317 7.94163C9.99984 7.94163 10.3332 8.46663 10.3332 9.14163C10.3332 9.85829 9.85817 10.8833 9.6165 11.8666C9.47484 12.6833 10.0498 13.4 10.8832 13.4C12.3665 13.4 13.5165 11.8166 13.5165 9.58329C13.5165 7.58329 12.0832 6.21663 10.0248 6.21663C7.67484 6.21663 6.2915 7.96663 6.2915 9.80829C6.2915 10.525 6.52484 11.25 6.90817 11.725C6.98317 11.775 6.98317 11.8416 6.95817 11.9666L6.7165 12.875C6.7165 13.0166 6.62484 13.0666 6.48317 12.9666C5.4165 12.5 4.79984 10.9833 4.79984 9.75829C4.79984 7.12496 6.6665 4.73329 10.2665 4.73329C13.1332 4.73329 15.3665 6.79163 15.3665 9.52496C15.3665 12.3916 13.5915 14.6916 11.0498 14.6916C10.2415 14.6916 9.44984 14.2583 9.1665 13.75L8.60817 15.725C8.4165 16.4416 7.8915 17.4 7.53317 17.975V17.95Z" fill="#232323"/>
</svg>
